# xmcd CD database file
#
# Track frame offsets:
#	155
#	49922
#	67737
#	81890
#	89537
#	128267
#
# Disc length: 2326 seconds
#
# Revision: 2
# Processed by: cddbd v1.5.2PL0 Copyright (c) Steve Scherf et al.
# Submitted via: CDex 1.70beta2
#
DISCID=41091406
DTITLE=Son House - Son House in Concert
DYEAR=1965
DGENRE=Blues
TTITLE0=Introduction House 
TTITLE1=It's So Hard
TTITLE2=Judgement Day
TTITLE3=New York Central
TTITLE4=A True Friends Is Hard To Find
TTITLE5=Preachin Blues
EXTD=YEAR: 1965
EXTT0=
EXTT1=
EXTT2=
EXTT3=
EXTT4=
EXTT5=
PLAYORDER=
